<?xml version="1.0" encoding="UTF-8" standalone="no"?><!DOCTYPE svg PUBLIC "-//W3C//DTD SVG 1.1//EN" "http://www.w3.org/Graphics/SVG/1.1/DTD/svg11.dtd"><svg width="100%" height="100%" viewBox="0 0 1579 400" version="1.1" xmlns="http://www.w3.org/2000/svg" xmlns:xlink="http://www.w3.org/1999/xlink" xml:space="preserve" xmlns:serif="http://www.serif.com/" style="fill-rule:evenodd;clip-rule:evenodd;stroke-linejoin:round;stroke-miterlimit:2;"><rect id="Logo-Exclusive-zone" serif:id="Logo Exclusive zone" x="0" y="0" width="1578.4" height="400" style="fill:none;"/><g><path d="M226.186,289.604c-1.958,5.532 -6.346,9.92 -11.879,11.879c-2.032,0.719 -4.218,1.11 -6.495,1.11c-2.277,0 -4.463,-0.391 -6.494,-1.11c-5.533,-1.958 -9.921,-6.346 -11.879,-11.879c-0.504,-1.424 -0.847,-2.924 -1.007,-4.478c-0.068,-0.663 -0.103,-1.335 -0.103,-2.015l0,-11.907l0,-59.533l0,-0.007c0,-4.727 -1.265,-9.162 -3.476,-12.982c-2.282,-3.944 -5.57,-7.234 -9.513,-9.517c-3.659,-2.119 -7.882,-3.37 -12.387,-3.472c-0.199,-0.005 -0.399,-0.007 -0.599,-0.007l-0.003,0c-0.199,0 -0.398,0.002 -0.596,0.007c-4.507,0.102 -8.732,1.355 -12.393,3.476c-3.94,2.283 -7.226,5.571 -9.507,9.513c-2.21,3.82 -3.476,8.255 -3.476,12.982l0,0.007l-0.007,-0l0,64.945l-0,6.496c-0,0.68 -0.035,1.352 -0.103,2.014c-0.16,1.554 -0.503,3.054 -1.007,4.478c-1.958,5.533 -6.346,9.922 -11.879,11.88c-1.951,0.69 -4.044,1.079 -6.223,1.109l-0.544,0c-2.179,-0.03 -4.272,-0.418 -6.222,-1.109c-5.533,-1.958 -9.921,-6.347 -11.879,-11.88c-0.719,-2.031 -1.11,-4.217 -1.11,-6.493l0,-71.441c0,-4.448 0.448,-8.792 1.301,-12.989c0.918,-4.517 2.306,-8.865 4.11,-12.989c2.026,-4.631 4.577,-8.982 7.577,-12.975l0.01,-0.013c3.693,-4.913 8.066,-9.286 12.979,-12.979l0.013,-0.01c3.994,-3 8.344,-5.551 12.976,-7.577c4.124,-1.804 8.472,-3.192 12.989,-4.111c4.197,-0.853 8.541,-1.301 12.989,-1.301c4.448,-0 8.792,0.448 12.989,1.301c4.517,0.918 8.864,2.306 12.989,4.111c4.631,2.026 8.982,4.577 12.976,7.577l0.013,0.01c4.913,3.693 9.286,8.066 12.979,12.979l0.01,0.013c3,3.994 5.551,8.344 7.577,12.976c1.804,4.124 3.192,8.472 4.11,12.989c0.853,4.197 1.301,8.541 1.301,12.989l-0,64.945l-0,6.495c-0,2.276 -0.391,4.462 -1.11,6.494Zm-41.336,-152.565c-5.641,-1.726 -9.494,-6.934 -9.494,-12.833c-0.015,-4.983 -0.015,-10.959 -0.015,-16.167c0,-3.234 1.472,-6.292 3.999,-8.31c2.527,-2.017 5.836,-2.775 8.989,-2.058c4.43,1.007 8.765,2.266 12.989,3.761c4.46,1.578 8.796,3.42 12.989,5.506l1.618,0.821c3.925,2.029 7.72,4.275 11.371,6.72c2.931,1.963 5.768,4.056 8.504,6.269c1.527,1.236 3.023,2.509 4.485,3.818c3.223,2.886 6.285,5.948 9.171,9.171c1.309,1.462 2.583,2.958 3.818,4.485c2.213,2.736 4.306,5.573 6.269,8.504c2.445,3.65 4.69,7.445 6.72,11.37c0.278,0.537 0.552,1.077 0.821,1.619c2.086,4.193 3.928,8.529 5.506,12.989c1.055,2.981 0.597,6.289 -1.228,8.871c-1.825,2.582 -4.791,4.118 -7.953,4.118l-20.998,0c-3.845,-0 -7.331,-2.263 -8.896,-5.775c-1.09,-2.48 -2.321,-4.885 -3.67,-7.214c-0.808,-1.396 -1.659,-2.764 -2.549,-4.104c-2.079,-3.128 -4.379,-6.097 -6.876,-8.885c-1.924,-2.148 -3.965,-4.189 -6.113,-6.113c-2.788,-2.497 -5.758,-4.796 -8.885,-6.876c-1.339,-0.891 -2.708,-1.741 -4.104,-2.549c-4.108,-2.378 -8.452,-4.393 -12.989,-5.998c-1.148,-0.406 -2.308,-0.786 -3.48,-1.14Z" style="fill:#ffb703;"/><circle cx="260.082" cy="218.165" r="19.483" style="fill:#023e8a;"/></g><path d="M526.417,260.765c-12.589,0 -23.744,-2.366 -33.464,-7.098c-9.718,-4.732 -17.334,-11.409 -22.848,-20.031c-5.514,-8.624 -8.271,-21.529 -8.271,-33.127c0,-11.448 2.329,-21.709 6.986,-30.781c4.657,-9.075 11.132,-16.242 19.426,-21.5c8.293,-5.258 17.908,-7.887 28.845,-7.887c1.975,0 3.896,0.071 5.761,0.213c9.313,0.71 17.255,3.193 23.826,7.448c7.887,5.108 13.799,11.981 17.736,20.619c3.937,8.638 5.905,18.306 5.905,29.003c0,1.561 -0.061,3.266 -0.183,5.116c-0.12,1.847 -0.33,3.417 -0.63,4.708l-85.587,0c0.721,7.122 3.026,15.91 6.915,20.779c3.892,4.866 8.895,8.523 15.01,10.972c6.115,2.448 12.823,3.672 20.123,3.672l30.017,0l0,17.894l-29.566,0Zm-42.633,-67.827l65.577,0c-0.061,-2.915 -0.407,-6.003 -1.039,-9.264c-0.631,-3.261 -1.698,-6.422 -3.201,-9.486c-1.502,-3.066 -3.486,-5.83 -5.951,-8.292c-2.462,-2.465 -5.527,-4.448 -9.194,-5.951c-3.664,-1.502 -8.006,-2.253 -13.024,-2.253c-5.136,0 -9.725,1.022 -13.767,3.067c-4.042,2.042 -7.46,4.762 -10.253,8.158c-2.793,3.394 -4.949,7.179 -6.468,11.355c-1.516,4.176 -2.41,8.398 -2.68,12.665Zm106.002,67.83l39.436,-55.844c-7.091,-2.282 -13.304,-5.714 -18.637,-10.296c-5.333,-4.582 -9.509,-9.998 -12.528,-16.246c-3.019,-6.251 -4.528,-12.922 -4.528,-20.014l0,-15.232l20.774,0l0,15.232c0,5.589 1.442,10.697 4.327,15.324c2.885,4.627 6.716,8.391 11.493,11.292c4.777,2.899 9.96,4.709 15.549,5.43l34.704,-47.278l23.077,0l-37.454,50.566c7.751,2.253 14.466,5.77 20.144,10.549c5.681,4.777 10.083,10.433 13.208,16.968c3.124,6.535 4.687,13.634 4.687,21.295l0,18.253l-20.778,0l0,-18.253c0,-6.07 -1.48,-11.554 -4.44,-16.45c-2.958,-4.899 -6.999,-8.888 -12.123,-11.968c-5.122,-3.08 -10.958,-4.874 -17.507,-5.384l-36.147,52.056l-23.257,0Zm189.835,0c-11.178,0 -20.824,-2.689 -28.936,-8.067c-8.113,-5.38 -14.34,-12.629 -18.683,-21.746c-4.34,-9.12 -6.51,-19.253 -6.51,-30.401c0,-11.328 2.411,-21.544 7.232,-30.647c4.824,-9.106 11.743,-16.31 20.757,-21.612c9.014,-5.303 19.785,-7.954 32.313,-7.954c12.199,0 22.656,2.644 31.369,7.933c8.713,5.289 15.428,12.425 20.144,21.408c4.718,8.983 7.077,19.034 7.077,30.151l0,60.936l-20.774,0l0,-26.278l-0.542,0c-2.192,4.357 -5.235,8.549 -9.127,12.577c-3.892,4.026 -8.677,7.316 -14.355,9.87c-5.678,2.554 -12.333,3.831 -19.965,3.831Zm5.271,-17.803c7.573,0 14.243,-1.863 20.01,-5.588c5.77,-3.728 10.27,-8.844 13.5,-15.348c3.23,-6.505 4.845,-13.813 4.845,-21.926c0,-7.993 -1.54,-15.136 -4.62,-21.429c-3.08,-6.296 -7.459,-11.291 -13.137,-14.986c-5.678,-3.697 -12.394,-5.546 -20.148,-5.546c-8.082,0 -15.015,1.878 -20.799,5.634c-5.784,3.756 -10.216,8.841 -13.296,15.257c-3.08,6.415 -4.62,13.679 -4.62,21.792c0,7.751 1.494,14.834 4.482,21.25c2.991,6.415 7.347,11.501 13.07,15.257c5.725,3.756 12.629,5.634 20.711,5.634Zm190.645,17.803c-7.089,0 -13.549,-1.405 -19.38,-4.215c-5.829,-2.81 -10.463,-7.174 -13.905,-13.091c-3.439,-5.92 -5.158,-13.537 -5.158,-22.852l0,-77.566l20.778,0l0,81.171c0,4.087 0.826,7.527 2.479,10.32c1.653,2.793 3.816,4.881 6.489,6.264c2.674,1.383 5.543,2.074 8.609,2.074c3.005,0 5.859,-0.705 8.563,-2.116c2.704,-1.413 4.897,-3.516 6.577,-6.31c1.683,-2.796 2.525,-6.206 2.525,-10.232l0,-44.711c0,-8.833 1.66,-16.149 4.979,-21.947c3.322,-5.8 7.844,-10.135 13.567,-13.003c5.725,-2.871 12.178,-4.306 19.359,-4.306c7.181,0 13.632,1.435 19.355,4.306c5.725,2.869 10.248,7.203 13.567,13.003c3.322,5.798 4.982,13.114 4.982,21.947l0,44.711c0,4.026 0.826,7.437 2.479,10.232c1.653,2.793 3.846,4.897 6.581,6.31c2.735,1.411 5.664,2.116 8.789,2.116c3.094,0 5.94,-0.705 8.539,-2.116c2.601,-1.413 4.728,-3.516 6.38,-6.31c1.653,-2.796 2.479,-6.206 2.479,-10.232l0,-81.171l20.866,0l0,77.566c0,9.314 -1.721,16.932 -5.162,22.852c-3.439,5.918 -8.059,10.282 -13.859,13.091c-5.798,2.81 -12.212,4.215 -19.243,4.215c-7.002,0 -13.433,-1.405 -19.292,-4.215c-5.859,-2.81 -10.547,-7.174 -14.063,-13.091c-3.514,-5.92 -5.271,-13.537 -5.271,-22.852l0,-44.168c0,-4.237 -0.811,-7.699 -2.433,-10.387c-1.622,-2.69 -3.718,-4.681 -6.289,-5.972c-2.568,-1.293 -5.37,-1.94 -8.405,-1.94c-2.944,0 -5.723,0.647 -8.338,1.94c-2.613,1.291 -4.731,3.282 -6.356,5.972c-1.622,2.688 -2.433,6.15 -2.433,10.387l0,44.168c0,9.314 -1.758,16.932 -5.275,22.852c-3.514,5.918 -8.148,10.282 -13.901,13.091c-5.753,2.81 -12.147,4.215 -19.179,4.215Zm236.528,0c-11.688,0 -22.069,-2.667 -31.144,-8c-9.075,-5.333 -16.226,-12.568 -21.454,-21.704c-5.228,-9.138 -7.841,-19.324 -7.841,-30.556c0,-11.232 2.614,-21.416 7.841,-30.552c5.228,-9.138 12.379,-16.374 21.454,-21.707c9.075,-5.333 19.456,-8 31.144,-8c11.688,0 22.068,2.667 31.14,8c9.075,5.333 16.226,12.535 21.454,21.605c5.23,9.068 7.845,19.299 7.845,30.693c0,11.242 -2.615,21.422 -7.845,30.542c-5.228,9.12 -12.379,16.346 -21.454,21.679c-9.073,5.333 -19.453,8 -31.14,8Zm0,-17.894c7.871,0 14.758,-1.878 20.662,-5.634c5.906,-3.756 10.503,-8.829 13.792,-15.218c3.291,-6.39 4.937,-13.555 4.937,-21.496c0,-7.944 -1.646,-15.115 -4.937,-21.514c-3.289,-6.401 -7.886,-11.48 -13.792,-15.236c-5.904,-3.756 -12.791,-5.634 -20.662,-5.634c-7.873,0 -14.762,1.878 -20.665,5.634c-5.904,3.756 -10.501,8.829 -13.792,15.218c-3.289,6.39 -4.933,13.555 -4.933,21.496c0,7.944 1.644,15.116 4.933,21.517c3.291,6.399 7.888,11.476 13.792,15.232c5.904,3.756 12.792,5.634 20.665,5.634Zm86.263,17.894l0,-85.048c0,-10.216 2.892,-18.216 8.676,-24c5.784,-5.784 13.784,-8.676 24,-8.676l23.753,0l0,17.894l-19.876,0c-5.019,0 -8.902,1.427 -11.651,4.282c-2.749,2.854 -4.123,6.836 -4.123,11.943l0,83.604l-20.778,0Zm75.492,0l0,-167.3l20.778,0l0,97.756l31.503,0l30.151,-48.179l23.077,0l-32.721,51.288c10.847,3.216 19.29,9.136 25.327,17.76c6.04,8.622 9.06,18.657 9.06,30.105l0,18.57l-20.774,0l0,-18.57c0,-6.279 -1.42,-11.905 -4.261,-16.877c-2.84,-4.974 -6.724,-8.918 -11.651,-11.831c-4.927,-2.915 -10.621,-4.373 -17.081,-4.373l-32.63,0l0,51.651l-20.778,0Zm-970.908,0c-6.358,0 -11.965,-1.465 -16.82,-4.394c-4.853,-2.931 -8.631,-6.872 -11.334,-11.823c-2.703,-4.951 -4.054,-10.454 -4.054,-16.508l0,-54.459c0,-2.443 -0.595,-4.664 -1.784,-6.664c-1.189,-2 -2.773,-3.589 -4.751,-4.766c-1.978,-1.179 -4.156,-1.769 -6.535,-1.769c-2.379,0 -4.541,0.59 -6.487,1.769c-1.946,1.177 -3.509,2.766 -4.688,4.766c-1.177,2 -1.766,4.222 -1.766,6.664l0,87.184l-19.364,0l0,-84.752c0,-6.141 1.351,-11.664 4.054,-16.572c2.703,-4.909 6.487,-8.828 11.352,-11.757c4.865,-2.931 10.498,-4.396 16.899,-4.396c6.465,0 12.13,1.465 16.995,4.396c4.865,2.929 8.654,6.848 11.367,11.757c2.715,4.907 4.072,10.431 4.072,16.572l0,54.459c0,2.465 0.595,4.692 1.784,6.682c1.189,1.988 2.746,3.572 4.67,4.751c1.924,1.177 4.054,1.766 6.391,1.766c2.335,0 4.475,-0.589 6.421,-1.766c1.946,-1.179 3.498,-2.763 4.655,-4.751c1.157,-1.99 1.736,-4.217 1.736,-6.682l0,-85.205l19.362,0l0,82.773c0,6.054 -1.34,11.557 -4.021,16.508c-2.681,4.951 -6.433,8.892 -11.256,11.823c-4.821,2.929 -10.453,4.394 -16.896,4.394Z" style="fill:#023e8a;"/><g id="Formes"></g></svg>